<svg xmlns="http://www.w3.org/2000/svg" width="383.6000671386719" height="174.02914428710938" viewBox="-207.66131591796875 -6.402927398681641 383.6000671386719 174.02914428710938"><title>Neo4j Graph Visualization</title><desc>Created using Neo4j (http://www.neo4j.com/)</desc><g class="layer relationships"><g class="relationship" transform="translate(-163.6613182166702 123.62622701809676) rotate(329.1879479255631)"><path class="outline" fill="#A5ABB6" stroke="none" d="M 40 0.5 L 67.69493236140518 0.5 L 67.69493236140518 -0.5 L 40 -0.5 Z M 93.25743236140518 0.5 L 120.95236472281036 0.5 L 120.95236472281036 3.5 L 127.95236472281036 0 L 120.95236472281036 -3.5 L 120.95236472281036 -0.5 L 93.25743236140518 -0.5 Z"/><text text-anchor="middle" pointer-events="none" font-size="8px" fill="#000000" x="80.47618236140518" y="3" font-family="sans-serif">Make</text></g><g class="relationship" transform="translate(-19.41506522697971 37.59707315489685) rotate(388.57710308883577)"><path class="outline" fill="#A5ABB6" stroke="none" d="M 40 0.5 L 71.67528260042978 0.5 L 71.67528260042978 -0.5 L 40 -0.5 Z M 93.67528260042978 0.5 L 125.35056520085956 0.5 L 125.35056520085956 3.5 L 132.35056520085956 0 L 125.35056520085956 -3.5 L 125.35056520085956 -0.5 L 93.67528260042978 -0.5 Z"/><text text-anchor="middle" pointer-events="none" font-size="8px" fill="#000000" x="82.67528260042978" y="3" font-family="sans-serif">With</text></g></g><g class="layer nodes"><g class="node" transform="translate(131.9387550499641,120.03940701699908)"><circle class="outline" cx="0" cy="0" r="40" fill="#FB95AF" stroke="#E0849B" stroke-width="2px"/><text text-anchor="middle" pointer-events="none" font-family="sans-serif" dy="2.5" font-size="40" fill="#FFFFFF"/><text text-anchor="middle" pointer-events="none" y="5" font-size="10px" fill="#FFFFFF" font-family="sans-serif"> Bank</text></g><g class="node" transform="translate(-19.41506522697971,37.59707315489685)"><circle class="outline" cx="0" cy="0" r="40" fill="#FFD86E" stroke="#EDBA39" stroke-width="2px"/><text text-anchor="middle" pointer-events="none" font-family="sans-serif" dy="2.5" font-size="40" fill="#604A0E"/><text text-anchor="middle" pointer-events="none" y="5" font-size="10px" fill="#604A0E" font-family="sans-serif"> Transaction</text></g><g class="node" transform="translate(-163.6613182166702,123.62622701809676)"><circle class="outline" cx="0" cy="0" r="40" fill="#6DCE9E" stroke="#60B58B" stroke-width="2px"/><text text-anchor="middle" pointer-events="none" font-family="sans-serif" dy="2.5" font-size="40" fill="#FFFFFF"/><text text-anchor="middle" pointer-events="none" y="5" font-size="10px" fill="#FFFFFF" font-family="sans-serif"> Customer</text></g></g></svg>